<?xml version="1.0" encoding="utf-8"?>
<!-- Generator: Adobe Illustrator 25.0.0, SVG Export Plug-In . SVG Version: 6.00 Build 0)  -->
<svg version="1.1" id="Layer_1" xmlns="http://www.w3.org/2000/svg" xmlns:xlink="http://www.w3.org/1999/xlink" x="0px" y="0px"
	 viewBox="0 0 246.5 202.9" style="enable-background:new 0 0 246.5 202.9;" xml:space="preserve">
<style type="text/css">
	.st0{fill:#EE5E23;}
	.st1{fill:#059744;}
</style>
<path class="st0" d="M124,34.3c5.4,0,10,0.4,14.1,3.1c3.9,2.6,6.4,6.7,6.8,11.4c0.5,3.6,0.7,7.2-0.7,10.7c-3.1,7.7-9,12-17,13.4
	c-6,1.2-12.2-0.4-16.8-4.4c-5.7-4.6-8.7-10.4-7.7-18c0.4-2.9,0.8-5.8,2.3-8.3c2.6-4.2,6.8-6.1,11.5-7
	C118.9,34.6,121.5,34.3,124,34.3z"/>
<path class="st0" d="M144.3,39.7c0.1-1.4-0.4-2.5-0.5-3.7c-0.1-1.5-1.6-2-2.6-2.7c-5.2-3.5-11.2-5.7-17.5-6.3
	c-8.5-0.9-15.6,2-21.6,7.8c-1.2,1.2-0.5,2.7-1,4c-0.1,0.5-0.2,1-0.1,1.6l-23.8-8.6c3.2-1.6,6-3,8.7-4.3c5.2-2.5,10.5-5,15.7-7.5
	c5.6-2.7,11.2-5.3,16.8-8.1c0.8-0.3,1.7-0.2,2.4,0.2c8.4,3.2,16.7,6.4,25,9.6c6.9,2.6,13.8,5.3,20.7,7.9c0.6,0.2,1.1,0.4,1.1,0.9
	s-0.6,0.8-1.1,1c-3.1,1.2-6.2,2.4-9.2,3.6c-4,1.5-7.9,3.1-11.9,4.6C144.9,39.7,144.6,39.7,144.3,39.7z"/>
<path class="st1" d="M125.3,171.2c3.3-7.8,6.4-15.4,9.6-22.9c2.7-6.4,5.5-12.7,8.1-19.1c0.2-0.6,0.7-1,1.3-0.9c2.8,0,5.5,0,8.5,0
	c-1.5,3.6-2.9,7.1-4.4,10.6c-2.7,6.5-5.5,12.9-8.2,19.4c-2.8,6.7-5.6,13.3-8.4,20c-1.5,3.7-3.1,7.4-4.5,11.1c-0.2,0.9-1.1,1.4-2,1.3
	c-1,0-1.4-0.5-1.7-1.4c-2.8-6.7-5.7-13.4-8.5-20.1c-3.2-7.4-6.3-14.8-9.4-22.2c-2.3-5.4-4.6-10.8-7-16.2c-0.3-0.8-0.6-1.5-1.1-2.6
	h8.9c0.7,0,0.8,0.6,1,1.1c3,7.1,6.1,14.2,9.1,21.4c2.6,6.1,5.2,12.2,7.8,18.3C124.7,169.6,125,170.3,125.3,171.2z"/>
<path class="st0" d="M49.7,18.8c2.3,0,4.2,0,6.1,0c0.8,0,1.1,0.4,1.3,1c3.8,8.2,7.5,16.5,11.3,24.7c2.5,5.5,5.1,11,7.7,16.6
	c1.5,3.2,2.9,6.4,4.6,10c-2.6,0-5.1,0-7.5,0c-0.5,0-0.7-0.4-1-0.9c-5.2-12-10.5-24-15.8-36C54.3,29.1,52,24.2,49.7,18.8z"/>
<path class="st0" d="M169,75c-2.3-1.8-1.7-4.9-4.1-6.3c0.1,1.1,0.6,2.2-0.4,3.2c-0.8-4.3-3.2-7.4-6.6-10.1c-2-1.6-4.6-3-5.2-5.8
	c-0.7-2.4-0.3-4.9,1-7c1.4-2.2,3.2-4.2,5.2-5.8c0.6,0.6,0.6,1.5,0,2.1c-0.1,0.1-0.2,0.2-0.4,0.3c-2,1.6-1.8,2-1.1,4.6
	c1,4,3.9,6,7.2,7.7c3.5,1.8,7.2,3.4,10.9,4.7c3,1.2,5.6,3.1,7.7,5.6c0.4,0.5,0.4,0.7,0.4,1.9c-2.2-1.4-4.3-3.1-7-4
	c0.3,1.6,2.9,1.7,1.9,3.8c-1.9-0.8-3-2.9-5-3.7c-0.1,2,1.6,3.6,1.7,5.8c-2.1-0.6-2.4-3-4.2-3.6c-0.5,0.8,0.1,1.6,0.2,2.4
	c-1.3-0.2-1.8-0.6-2.6-2.1c-0.6-1.1-0.5-2.4-1.6-3.6C167.8,68.3,169.2,71.3,169,75z"/>
<path class="st0" d="M196.9,19.2c-1.1,2.7-2.1,5.2-3.1,7.6c-3.8,8.7-7.6,17.3-11.3,26c-0.3,0.6-0.5,1-1.2,1h-6.3
	c0.1-2.4,1.5-4.2,2.3-6.1c2.7-6.2,5.6-12.4,8.3-18.6c1.2-2.7,2.3-5.3,3.4-8c0.5-1.3,1.3-2.1,2.9-2C193.4,19.2,195,19.2,196.9,19.2z"
	/>
<path class="st1" d="M30.6,83.8c2.8-0.7,4.6,0.4,6.2,2.6c2.2,2.7,4.4,5.3,6.9,7.8V83.7H48V101c-2.6,1.1-4.3-0.4-5.7-2.2
	c-2.3-2.9-4.7-5.7-7.4-8.5v10.7c-1.4,0.2-2.8,0.3-4.2,0.2V83.8z"/>
<path class="st1" d="M211.3,83.8c2.8-0.7,4.6,0.3,6.2,2.6c2,2.7,4.4,5,6.9,7.8V83.7h4.3v17.4c-1.9,0.7-3.9,0-5.1-1.6
	c-2.5-3.1-5.2-6.1-8.1-9.5v11.1h-4.3V83.8z"/>
<path class="st1" d="M195.5,101.6c-5.4-0.4-9.3-3.3-10.2-8.7c-0.5-3.4,3.2-8.4,7.1-9.2c3.6-0.8,7-0.6,10,2c3.5,3.1,4.6,7.6,1.7,11.7
	C202,100.3,198.9,101.4,195.5,101.6z M195.6,97.6c3.5,0,5.5-1.8,5.5-5.2c0-2.9-1.7-5.4-5.6-5.4c-3.7,0-5.6,2.2-5.6,5.3
	S192.1,97.7,195.6,97.6L195.6,97.6z"/>
<path class="st1" d="M110,88.6c-2.5-1.2-5.3-1.7-8-1.4c-2.9,0.1-5.1,2.5-5,5.4c0.1,2.9,2.5,5.1,5.4,5c0.5,0,1.1,0,1.6,0
	c2,0,2.1-0.2,1.9-2.4l-2.2-0.1c-0.3-1-0.3-2-0.1-3c1.1-0.2,2.3-0.3,3.4-0.2c1.1,0,2.1,0,3.4,0c0,2.4,0,4.7,0,6.9
	c0,0.9-0.7,1.1-1.2,1.3c-4.8,2.1-9.4,2.2-13.8-1.3c-4-3.3-3.7-10,0.2-13c4.2-3.2,8.8-3,13.6-1.5c0.6,0.1,1,0.7,0.9,1.3
	c0,0.7,0,1.3,0,2C110,87.9,110,88.2,110,88.6z"/>
<path class="st1" d="M120.8,94.2v6.9c-1.5,0.2-3,0.3-4.6,0.1V83.6c3.1-0.1,6.3-0.1,9.4,0.1c1.9,0.2,3.5,1.6,4,3.5
	c0.7,2.3-0.1,4-2.5,5.7c2.2,2.3,3,5.3,4.5,8.3c-1.5,0-2.8,0-4.1,0c-0.9,0-1.2-0.7-1.3-1.3c-0.5-1.4-1.1-2.7-1.9-4
	C123.9,94.6,122.3,93.8,120.8,94.2z M120.9,86.9v3.9c1.6-0.1,3.2,0.7,4.3-1c0.4-0.6,0.4-1.3,0-1.8C124.2,86.4,122.6,87,120.9,86.9z"
	/>
<path class="st1" d="M154.3,101.3c-0.8-0.1-1.5-0.1-2.3,0c-1.9,0.3-3-0.4-3.4-2.3c-0.2-1.1-0.9-1.4-1.9-1.3c-1,0.1-2,0.1-3.1,0
	c-2.1-0.2-4-0.2-4.4,2.7c-0.1,0.6-0.6,1.1-1.2,1c0,0,0,0-0.1,0c-1.2,0-2.4,0-3.7,0c2.3-5.8,4.5-11.3,6.7-17c0.1-0.5,0.6-0.8,1.1-0.7
	c1.2,0,2.4,0,3.6,0c0.8,0,1,0.5,1.2,1L154.3,101.3z M141.5,94.7h5.3L144,88C143,90.2,142.2,92.4,141.5,94.7z"/>
<path class="st1" d="M75.3,83.7h12.3v3.2h-8c-0.2,1.2-0.2,2.4-0.1,3.6h7.6c0.5,1.1,0.2,2.1,0.3,3.2h-7.8V98H88v3.1H75.3V83.7z"/>
<path class="st1" d="M164.8,101.2h-4.4V86.9H154v-3.2h17.1c0.2,1,0.2,2.1,0,3.1h-6.3L164.8,101.2z"/>
<path class="st1" d="M53.3,86.9c-0.2-1.1-0.2-2.1,0-3.2h17.1v3.1H64V101c-1.4,0.3-2.9,0.4-4.4,0.2V86.9H53.3z"/>
<path class="st1" d="M180.1,101.2h-4.1V83.7h4.1V101.2z"/>
<path class="st1" d="M20.1,83.7h4.1v17.5h-4.1V83.7z"/>
<path class="st0" d="M189.2,106.7c2.4-0.1,4.3,0.6,5.5,2.8s0.7,4.2-0.4,6.2c-0.7,1.2-1.8,1.3-2.8,1.6c-4.2,1.4-8.5-1.4-8.4-5.4
	C183.2,109,185.9,106.7,189.2,106.7z M189.1,115.4c1.8,0.2,3.4-1.1,3.6-2.9c0.2-1.8-1.1-3.4-2.9-3.6c-0.2,0-0.4,0-0.6,0
	c-2.2,0-3.3,1-3.3,3.3S187,115.3,189.1,115.4L189.1,115.4z"/>
<path class="st0" d="M173.7,117.5c-2.8,0.1-5.3-1.7-6.1-4.4c-0.5-2.3,1.1-4.8,3.7-6c2.4-1.1,6.3-0.1,7.7,2c1.5,2.3,1.1,5.4-1,7.3
	C176.8,117.2,175.3,117.6,173.7,117.5z M173.8,115.3c1.8,0.2,3.4-1.1,3.5-2.9c0.2-1.8-1.1-3.4-2.9-3.5c-0.2,0-0.4,0-0.6,0
	c-2.2,0-3.2,1.1-3.2,3.3S171.6,115.3,173.8,115.3z"/>
<path class="st0" d="M55.6,106.7v10.6h-2.4v-4.1h-5.4v4c-0.9,0.2-1.9,0.3-2.8,0.2v-10.6h2.7v4.1h5.4V107
	C53.9,106.6,54.7,106.5,55.6,106.7z"/>
<path class="st0" d="M163.9,117.3c-0.7,0.2-1.4,0.3-2.2,0.1c-0.4-0.7-0.2-1.4-0.2-2.1s0-1.3,0-2.1c-1.8-0.2-3.6-0.2-5.4,0v4
	c-0.9,0.2-1.9,0.3-2.8,0.1v-10.5c0.9-0.4,1.7-0.1,2.7-0.2v4.2h5.4v-4c0.8-0.2,1.6-0.3,2.4-0.1L163.9,117.3z"/>
<path class="st0" d="M76.5,117.4h-2.8v-10.7c1.9,0,3.9-0.1,5.8,0c1.6,0.1,2.4,1.4,2.7,2.7s-0.5,2.2-1.7,2.9c1.2,1.4,2.1,3.1,2.6,4.9
	c-2.7,0.5-2.9,0.4-3.9-2.2c-0.4-1.2-0.9-2.1-2.4-1.8c-0.2,0.7-0.3,1.4-0.2,2.1C76.5,116,76.5,116.7,76.5,117.4z M76.7,111
	c1-0.3,2.7,0.8,2.6-1.1c0-1.7-1.6-1.1-2.6-1.4C76.5,109.4,76.5,110.2,76.7,111z"/>
<path class="st0" d="M116.4,112.4c1.3,1.4,2.2,3,2.6,4.8c-2.5,0.6-2.8,0.4-3.8-2c-0.5-1.2-0.9-2.2-2.5-2c-0.2,0.7-0.3,1.4-0.2,2.1
	c0,0.7,0,1.3,0,2h-2.8v-10.6c1.9,0,3.7,0,5.4,0c1.5,0,2.8,1.1,3,2.6C118.5,110.7,117.7,111.7,116.4,112.4z M112.7,111.3
	c0.9-0.8,2.5,0.6,2.6-1.3s-1.6-1.1-2.6-1.5C112.5,109.4,112.5,110.4,112.7,111.3z"/>
<path class="st0" d="M58.7,117.4c1.3-3.3,2.6-6.5,3.8-9.7c0.5-1.3,1.6-0.9,2.5-1s1.2,0.3,1.5,1.1c1.3,3.2,2.8,6.3,4.3,9.6
	c-1.5,0.1-3,0.6-3.5-1.3c-0.1-0.5-0.5-0.8-1-0.7c-1.1,0-2.2,0-3.2,0c-0.4,0-0.9,0-1,0.5C61.7,117.9,60.2,117.5,58.7,117.4z
	 M64.4,109.7l-1.3,3.7h3C65.9,111.9,64.9,111,64.4,109.7z"/>
<path class="st0" d="M98.3,106.7h7.6c0.3,0.5,0.3,1.2,0,1.7h-4.6c-0.5,0.8-0.2,1.6-0.3,2.5h4.6c0.7,0.6,0.3,1.1,0.4,1.7
	c-1.6,0.5-3.3,0-4.8,0.3c-0.2,0.8-0.3,1.6-0.2,2.3h5c0.4,0.7,0.4,1.4,0.1,2.1h-7.9V106.7z"/>
<path class="st0" d="M40.8,109.7c-2.5-0.8-5.1-1.9-7.1,0.9c-0.7,0.9-0.7,2.2,0.1,3.2c2,2.6,4.5,1.6,7,0.7c0.7,1.7-0.1,2.5-1.7,2.9
	c-3.1,0.8-6.3-0.2-7.7-2.3c-1.1-1.5-1.3-3.5-0.3-5.2c0.9-1.8,2.7-3.1,4.7-3.2c0.8,0,1.7,0,2.5,0C40.7,106.7,41.1,107.2,40.8,109.7z"
	/>
<path class="st0" d="M149.1,114.4c0.6,1.7-0.1,2.6-1.7,3c-3.8,1-7.2-0.6-8.3-3.6c-1.2-3.2,1.6-6.9,5-7.1c0.8,0,1.7,0,2.5,0
	c2.5,0.1,2.9,0.6,2.5,3.1c-2.4-1-4.9-1.8-7,0.7c-0.7,0.9-0.8,2.2-0.1,3.2C144.1,116.4,146.6,115.3,149.1,114.4z"/>
<path class="st0" d="M128.3,114.6c1.2,0.4,2.2,1.2,3.4,1.1c0.6,0,1.2-0.1,1.4-0.9s-0.4-0.9-0.9-1.2c-0.9-0.4-1.9-0.7-2.7-1.2
	c-1.2-0.7-2.1-1.8-1.7-3.2c0.3-1.5,1.6-2.6,3.2-2.6c0.8,0,1.7,0,2.5,0c1.9,0.2,2.3,0.6,2,2.7c-1.1-0.5-2.3-0.8-3.6-0.8
	c-0.5,0-1.1,0.1-1.3,0.7s0.4,0.9,0.9,1.1c0.9,0.4,1.8,0.9,2.7,1.2c1.6,0.6,1.9,1.9,1.6,3.4c-0.2,1.3-1.2,2.3-2.5,2.4
	c-1.2,0.2-2.4,0.2-3.6,0C128.5,117.1,127.5,116.4,128.3,114.6z"/>
<path class="st0" d="M217.9,109.3c-1.1-0.3-2.1-0.6-3.2-0.8c-0.7-0.2-1.4,0.1-1.6,0.8c-0.3,0.9,0.7,1.2,1.2,1.3
	c0.8,0.2,1.6,0.6,2.4,1.1c1.6,0.6,1.9,1.8,1.7,3.3c-0.2,1.3-1.2,2.3-2.5,2.5c-1.2,0.2-2.4,0.2-3.6,0c-1.4-0.2-2.4-1-1.7-2.8
	c1.2,0.3,2.2,1.1,3.5,1c0.6,0,1.2,0,1.4-0.8s-0.4-1-0.9-1.3c-0.9-0.4-1.8-0.7-2.6-1.1c-1.3-0.7-2.2-1.9-1.8-3.3
	c0.3-1.5,1.7-2.6,3.3-2.5c0.8,0,1.7-0.1,2.5,0C217.5,106.9,218.6,107.5,217.9,109.3z"/>
<path class="st0" d="M91.4,117.4h-2.9v-8.9h-3.6c-0.4-0.5-0.6-1.2-0.3-1.8h10c0.4,0.4,0.2,1,0.2,1.5c-1.1,0.5-2.2,0-3.5,0.4
	L91.4,117.4z"/>
<path class="st0" d="M201.9,115.4h5.3v2h-8.2v-10.6h2.9V115.4z"/>
<path class="st0" d="M155,40.4c0.1-1.5,0.8-2.5,2.2-2.4c1.1,0,2.1,0.9,2.1,2c0,0.1,0,0.2,0,0.3c0.1,1.1-0.7,2.2-1.9,2.3
	c-0.1,0-0.2,0-0.3,0C155.7,42.6,155.2,41.5,155,40.4z"/>
</svg>
