<svg id="Layer_1" data-name="Layer 1" xmlns="http://www.w3.org/2000/svg" viewBox="0 0 504.12 512"><defs><style>.cls-1{fill:#cbbba0;}.cls-2{fill:#fff;}.cls-3{fill:#fac15c;}.cls-4{fill:#be1622;}.cls-5{fill:#f9b233;}.cls-6{fill:#1d1d1b;}</style></defs><rect class="cls-1" x="23.63" y="228.43" width="141.78" height="267.81"/><rect class="cls-1" x="340.78" y="228.43" width="141.78" height="267.81"/><rect class="cls-1" x="157.54" y="110.27" width="189.04" height="393.84"/><rect class="cls-2" x="267.82" y="149.66" width="47.26" height="189.04"/><rect class="cls-2" x="189.05" y="149.66" width="47.26" height="189.04"/><rect class="cls-3" x="189.05" y="244.19" width="47.26" height="47.26"/><rect class="cls-3" x="267.82" y="196.93" width="47.26" height="47.26"/><rect class="cls-3" x="189.05" y="149.66" width="47.26" height="47.26"/><rect class="cls-3" x="267.82" y="291.44" width="47.26" height="47.26"/><rect class="cls-3" x="157.54" y="425.36" width="189.91" height="78.77"/><rect class="cls-1" x="204.8" y="378.1" width="95.47" height="126.03"/><rect class="cls-2" x="204.8" y="378.1" width="93.62" height="126.03"/><rect class="cls-4" y="202.84" width="157.54" height="25.6"/><rect class="cls-4" x="346.58" y="202.84" width="157.54" height="25.6"/><rect class="cls-4" x="133.91" y="84.68" width="236.31" height="25.6"/><rect class="cls-5" x="23.63" y="70.89" width="63.01" height="63.01"/><rect class="cls-5" x="417.48" y="70.89" width="63.01" height="63.01"/><rect class="cls-6" x="15.75" y="244.18" width="15.76" height="244.18"/><rect class="cls-6" y="496.24" width="504.12" height="15.76"/><rect class="cls-6" x="133.91" y="102.4" width="236.31" height="15.76"/><rect class="cls-6" x="133.91" y="78.77" width="236.31" height="15.76"/><path class="cls-6" d="M153.6,126v70.89H35.45V141.79h75.76L91.51,102.4,111.21,63H19.69v133.9H3.94v15.76H153.6v7.88H3.94v15.75H153.6V488.37h15.75V126ZM35.45,78.77H85.72L73.9,102.4,85.72,126H35.45Z" transform="translate(-3.94)"/><rect class="cls-6" x="55.14" y="252.06" width="15.76" height="39.39"/><rect class="cls-6" x="110.28" y="252.06" width="15.76" height="39.39"/><rect class="cls-6" x="55.14" y="315.08" width="15.76" height="39.39"/><rect class="cls-6" x="110.28" y="315.08" width="15.76" height="39.39"/><rect class="cls-6" x="55.14" y="378.1" width="15.76" height="39.38"/><rect class="cls-6" x="110.28" y="378.1" width="15.76" height="39.38"/><rect class="cls-6" x="55.14" y="441.11" width="15.76" height="39.39"/><rect class="cls-6" x="110.28" y="441.11" width="15.76" height="39.39"/><rect class="cls-6" x="472.62" y="244.18" width="15.76" height="244.18"/><path class="cls-6" d="M508.06,212.68V196.92H492.31V63H400.79l19.7,39.38-19.7,39.38h75.76v55.14H358.4V126H342.65V488.37H358.4V236.31H508.06V220.55H358.4v-7.87ZM426.28,126,438.1,102.4,426.28,78.77h50.27V126Z" transform="translate(-3.94)"/><rect class="cls-6" x="433.23" y="252.06" width="15.76" height="39.39"/><rect class="cls-6" x="378.09" y="252.06" width="15.76" height="39.39"/><rect class="cls-6" x="433.23" y="315.08" width="15.76" height="39.39"/><rect class="cls-6" x="378.09" y="315.08" width="15.76" height="39.39"/><rect class="cls-6" x="433.23" y="378.1" width="15.76" height="39.38"/><rect class="cls-6" x="378.09" y="378.1" width="15.76" height="39.38"/><rect class="cls-6" x="433.23" y="441.11" width="15.76" height="39.39"/><rect class="cls-6" x="378.09" y="441.11" width="15.76" height="39.39"/><polygon class="cls-6" points="196.92 370.21 196.92 488.37 212.68 488.37 212.68 385.97 244.18 385.97 244.18 488.37 259.94 488.37 259.94 385.97 291.45 385.97 291.45 488.37 307.2 488.37 307.2 370.21 196.92 370.21"/><rect class="cls-6" x="267.82" y="448.98" width="15.76" height="15.76"/><rect class="cls-6" x="220.55" y="448.98" width="15.76" height="15.76"/><path class="cls-6" d="M185.11,346.59h63V141.79h-63v204.8Zm15.75-15.76V299.32h31.51v31.51Zm31.51-78.77v31.51H200.86V252.06Zm-31.51-15.75V204.8h31.51v31.51Zm31.51-78.77v31.51H200.86V157.54Z" transform="translate(-3.94)"/><path class="cls-6" d="M263.88,141.79v204.8h63V141.79Zm47.26,15.75v31.51H279.63V157.54Zm-31.51,78.77V204.8h31.51v31.51Zm31.51,15.75v31.51H279.63V252.06Zm-31.51,78.77V299.32h31.51v31.51Z" transform="translate(-3.94)"/><polygon class="cls-6" points="259.94 55.14 259.94 0 244.18 0 244.18 55.14 204.8 55.14 204.8 70.89 299.32 70.89 299.32 55.14 259.94 55.14"/></svg>