<svg id="Layer_1" data-name="Layer 1" xmlns="http://www.w3.org/2000/svg" viewBox="0 0 147.2 176.46"><defs><style>.cls-1{fill:#ee5e23;}.cls-2{fill:#059744;}</style></defs><path class="cls-1" d="M124,34.3c5.4,0,10,.4,14.1,3.1a15.15,15.15,0,0,1,6.8,11.4c.5,3.6.7,7.2-.7,10.7-3.1,7.7-9,12-17,13.4a19.68,19.68,0,0,1-16.8-4.4c-5.7-4.6-8.7-10.4-7.7-18,.4-2.9.8-5.8,2.3-8.3,2.6-4.2,6.8-6.1,11.5-7A31.42,31.42,0,0,1,124,34.3Z" transform="translate(-49.7 -11.73)"/><path class="cls-1" d="M144.3,39.7a20.67,20.67,0,0,0-.5-3.7c-.1-1.5-1.6-2-2.6-2.7A37.77,37.77,0,0,0,123.7,27c-8.5-.9-15.6,2-21.6,7.8-1.2,1.2-.5,2.7-1,4a4.19,4.19,0,0,0-.1,1.6L77.2,31.8c3.2-1.6,6-3,8.7-4.3,5.2-2.5,10.5-5,15.7-7.5,5.6-2.7,11.2-5.3,16.8-8.1a2.87,2.87,0,0,1,2.4.2c8.4,3.2,16.7,6.4,25,9.6,6.9,2.6,13.8,5.3,20.7,7.9.6.2,1.1.4,1.1.9s-.6.8-1.1,1c-3.1,1.2-6.2,2.4-9.2,3.6-4,1.5-7.9,3.1-11.9,4.6Z" transform="translate(-49.7 -11.73)"/><path class="cls-2" d="M124,168.68c3.3-7.8,6.4-15.4,9.6-22.9,2.7-6.4,5.5-12.7,8.1-19.1a1.19,1.19,0,0,1,1.3-.9h8.5c-1.5,3.6-2.9,7.1-4.4,10.6-2.7,6.5-5.5,12.9-8.2,19.4-2.8,6.7-5.6,13.3-8.4,20-1.5,3.7-3.1,7.4-4.5,11.1a1.78,1.78,0,0,1-2,1.3c-1,0-1.4-.5-1.7-1.4-2.8-6.7-5.7-13.4-8.5-20.1-3.2-7.4-6.3-14.8-9.4-22.2-2.3-5.4-4.6-10.8-7-16.2-.3-.8-.6-1.5-1.1-2.6h8.9c.7,0,.8.6,1,1.1,3,7.1,6.1,14.2,9.1,21.4l7.8,18.3A16.47,16.47,0,0,1,124,168.68Z" transform="translate(-49.7 -11.73)"/><path class="cls-1" d="M49.7,18.8h6.1a1.22,1.22,0,0,1,1.3,1c3.8,8.2,7.5,16.5,11.3,24.7,2.5,5.5,5.1,11,7.7,16.6,1.5,3.2,2.9,6.4,4.6,10H73.2c-.5,0-.7-.4-1-.9-5.2-12-10.5-24-15.8-36C54.3,29.1,52,24.2,49.7,18.8Z" transform="translate(-49.7 -11.73)"/><path class="cls-1" d="M63.92,50.67H70c.8,0,2.47,2.52,2.67,3.12,3.8,8.2,6.73,14.55,9.93,22.58,2.5,5.5,5.1,11,7.7,16.6,1.5,3.2,2.9,6.4,4.6,10h-7.5c-.5,0-.7-.4-1-.9-5.2-12-10.5-24-15.8-36C68.52,61,66.22,56.07,63.92,50.67Z" transform="translate(-49.7 -11.73)"/><path class="cls-1" d="M169,75c-2.3-1.8-1.7-4.9-4.1-6.3.1,1.1.6,2.2-.4,3.2-.8-4.3-3.2-7.4-6.6-10.1-2-1.6-4.6-3-5.2-5.8a8.62,8.62,0,0,1,1-7,24,24,0,0,1,5.2-5.8,1.45,1.45,0,0,1,0,2.1,1.38,1.38,0,0,1-.4.3c-2,1.6-1.8,2-1.1,4.6,1,4,3.9,6,7.2,7.7a87.35,87.35,0,0,0,10.9,4.7,19.41,19.41,0,0,1,7.7,5.6c.4.5.4.7.4,1.9-2.2-1.4-4.3-3.1-7-4,.3,1.6,2.9,1.7,1.9,3.8-1.9-.8-3-2.9-5-3.7-.1,2,1.6,3.6,1.7,5.8-2.1-.6-2.4-3-4.2-3.6-.5.8.1,1.6.2,2.4-1.3-.2-1.8-.6-2.6-2.1-.6-1.1-.5-2.4-1.6-3.6C167.8,68.3,169.2,71.3,169,75Z" transform="translate(-49.7 -11.73)"/><path class="cls-1" d="M196.9,19.2c-1.1,2.7-2.1,5.2-3.1,7.6-3.8,8.7-7.6,17.3-11.3,26-.3.6-.5,1-1.2,1H175c.1-2.4,1.5-4.2,2.3-6.1,2.7-6.2,5.6-12.4,8.3-18.6,1.2-2.7,2.3-5.3,3.4-8a2.66,2.66,0,0,1,2.9-2C193.4,19.2,195,19.2,196.9,19.2Z" transform="translate(-49.7 -11.73)"/><path class="cls-1" d="M170.72,76a.38.38,0,0,1,.36.53c-1,2.5-1.94,4.83-2.88,7.07-3.8,8.7-5.42,12.2-9.12,20.9-.3.6-.65.42-1.35.42l-2.12-.13c-.22,0-2,0-2.88-.12-.17,0-1.13-.32-1-.75,2.7-6.2,5.54-11.82,8.24-18,1.2-2.7,2.3-5.3,3.4-8a2.66,2.66,0,0,1,2.9-2C167.65,75.94,169.07,76,170.72,76Z" transform="translate(-49.7 -11.73)"/><path class="cls-2" d="M155.56,114a.62.62,0,0,1,.57.84c-1,2.38-1.87,4.61-2.76,6.76-.64,1.55-2.06,4.69-2.15,4.9,0,0-.17.21-.89.21l-1.45,0c-.44,0-3,0-3.46,0-.17,0-2.82-.17-3.06-.22-.63-.26.16-1.87.66-3,1.2-2.7,2.27-5.33,3.37-8,.52-1.55,3.48-1.64,5.08-1.54C152.72,114,154.05,114,155.56,114Z" transform="translate(-49.7 -11.73)"/><path class="cls-2" d="M96.52,113.9c1.6-.1,4.56,0,5.08,1.54,1.1,2.7,2.17,5.33,3.37,8,.5,1.15,1.29,2.76.66,3-.24.05-2.89.19-3.06.22-.42.07-3,0-3.46,0l-1.45,0c-.72,0-.89-.21-.89-.21-.09-.21-1.51-3.35-2.15-4.9-.89-2.15-1.79-4.38-2.76-6.76a.62.62,0,0,1,.57-.84C93.94,114,95.27,114,96.52,113.9Z" transform="translate(-49.7 -11.73)"/><path class="cls-1" d="M155,40.4c.1-1.5.8-2.5,2.2-2.4a2.09,2.09,0,0,1,2.1,2v.3a2.12,2.12,0,0,1-1.9,2.3h-.3C155.7,42.6,155.2,41.5,155,40.4Z" transform="translate(-49.7 -11.73)"/></svg>