<svg xmlns="http://www.w3.org/2000/svg" width="139.14" height="139.902" viewBox="0 0 139.14 139.902">
  <defs>
    <style>
      .cls-1 {
        fill: #17d12f;
      }
    </style>
  </defs>
  <g id="Group_1" data-name="Group 1" transform="translate(-1145.86 -3080.098)">
    <rect id="Rectangle_5" data-name="Rectangle 5" class="cls-1" width="64" height="66" rx="9" transform="translate(1146 3154)"/>
    <path id="Rectangle_5_-_Outline" data-name="Rectangle 5 - Outline" class="cls-1" d="M9,1A8.009,8.009,0,0,0,1,9V57a8.009,8.009,0,0,0,8,8H55a8.009,8.009,0,0,0,8-8V9a8.009,8.009,0,0,0-8-8H9M9,0H55a9,9,0,0,1,9,9V57a9,9,0,0,1-9,9H9a9,9,0,0,1-9-9V9A9,9,0,0,1,9,0Z" transform="translate(1146 3154)"/>
    <path id="Path_1" data-name="Path 1" class="cls-1" d="M1147.47,3164.831s.144-10.174,0-17.524c-.1-5.17,0-11.767,0-17.524,0-13.143-.251-12.584,0-17.524.383-7.564,4.437-15.652,8.411-19.627,6.309-6.309,9.813-8.412,13.318-9.813s17.524-4.206,17.524,0v19.627c0,4.206-5.608,0-14.019,5.608s-8.411,7.01-8.411,21.73v25.935Z" transform="translate(-0.999)"/>
    <path id="Path_1_-_Outline" data-name="Path 1 - Outline" class="cls-1" d="M1147.47,3165.331a.5.5,0,0,1-.5-.507c0-.1.142-10.25,0-17.507-.068-3.461-.045-7.605-.022-11.613.011-1.973.022-4.012.022-5.921,0-5.8-.049-8.956-.082-11.043-.041-2.639-.058-3.732.083-6.506a32.092,32.092,0,0,1,2.9-11.339,29.648,29.648,0,0,1,5.655-8.615c6.287-6.287,9.821-8.458,13.486-9.924a43.925,43.925,0,0,1,12.717-2.257,10.666,10.666,0,0,1,3.741.526,2.32,2.32,0,0,1,1.752,2.2v19.627a2.237,2.237,0,0,1-1.2,2.272,8.022,8.022,0,0,1-2.8.482,19.18,19.18,0,0,0-10.241,3.269c-8.189,5.459-8.189,6.656-8.189,21.314v25.935a.5.5,0,0,1-.262.44l-16.823,9.113A.5.5,0,0,1,1147.47,3165.331Zm34.261-84.233a42.642,42.642,0,0,0-12.345,2.186c-3.547,1.419-6.984,3.537-13.15,9.7-3.815,3.815-7.88,11.669-8.266,19.3-.139,2.741-.124,3.749-.082,6.44.033,2.09.082,5.249.082,11.059,0,1.911-.011,3.952-.022,5.926-.022,4-.045,8.139.022,11.588.118,6.044.041,14.083.011,16.688l15.812-8.565v-25.637c0-7.4,0-11.479,1.082-14.453,1.092-3,3.212-4.8,7.553-7.693a20.07,20.07,0,0,1,10.727-3.435c2.383-.166,3.07-.28,3.07-1.757v-19.627C1186.224,3081.322,1183.409,3081.1,1181.731,3081.1Z" transform="translate(-0.999)"/>
    <rect id="Rectangle_6" data-name="Rectangle 6" class="cls-1" width="64" height="66" rx="9" transform="translate(1221 3154)"/>
    <path id="Rectangle_6_-_Outline" data-name="Rectangle 6 - Outline" class="cls-1" d="M9,1A8.009,8.009,0,0,0,1,9V57a8.009,8.009,0,0,0,8,8H55a8.009,8.009,0,0,0,8-8V9a8.009,8.009,0,0,0-8-8H9M9,0H55a9,9,0,0,1,9,9V57a9,9,0,0,1-9,9H9a9,9,0,0,1-9-9V9A9,9,0,0,1,9,0Z" transform="translate(1221 3154)"/>
    <path id="Path_2" data-name="Path 2" class="cls-1" d="M1147.47,3164.831s.144-10.174,0-17.524c-.1-5.17,0-11.767,0-17.524,0-13.143-.251-12.584,0-17.524.383-7.564,4.437-15.652,8.411-19.627,6.309-6.309,9.813-8.412,13.318-9.813s17.524-4.206,17.524,0v19.627c0,4.206-5.608,0-14.019,5.608s-8.411,7.01-8.411,21.73v25.935Z" transform="translate(74.001)"/>
    <path id="Path_2_-_Outline" data-name="Path 2 - Outline" class="cls-1" d="M1147.47,3165.331a.5.5,0,0,1-.5-.507c0-.1.142-10.25,0-17.507-.068-3.461-.045-7.605-.022-11.613.011-1.973.022-4.012.022-5.921,0-5.8-.049-8.956-.082-11.043-.041-2.639-.058-3.732.083-6.506a32.092,32.092,0,0,1,2.9-11.339,29.648,29.648,0,0,1,5.655-8.615c6.287-6.287,9.821-8.458,13.486-9.924a43.925,43.925,0,0,1,12.717-2.257,10.666,10.666,0,0,1,3.741.526,2.32,2.32,0,0,1,1.752,2.2v19.627a2.237,2.237,0,0,1-1.2,2.272,8.022,8.022,0,0,1-2.8.482,19.18,19.18,0,0,0-10.241,3.269c-8.189,5.459-8.189,6.656-8.189,21.314v25.935a.5.5,0,0,1-.262.44l-16.823,9.113A.5.5,0,0,1,1147.47,3165.331Zm34.261-84.233a42.642,42.642,0,0,0-12.345,2.186c-3.547,1.419-6.984,3.537-13.15,9.7-3.815,3.815-7.88,11.669-8.266,19.3-.139,2.741-.124,3.749-.082,6.44.033,2.09.082,5.249.082,11.059,0,1.911-.011,3.952-.022,5.926-.022,4-.045,8.139.022,11.588.118,6.044.041,14.083.011,16.688l15.812-8.565v-25.637c0-7.4,0-11.479,1.082-14.453,1.092-3,3.212-4.8,7.553-7.693a20.07,20.07,0,0,1,10.727-3.435c2.383-.166,3.07-.28,3.07-1.757v-19.627C1186.224,3081.322,1183.409,3081.1,1181.731,3081.1Z" transform="translate(74.001)"/>
  </g>
</svg>
