<svg id="Layer_1" data-name="Layer 1" xmlns="http://www.w3.org/2000/svg" viewBox="0 0 154.14 161.06"><defs><style>.cls-1{fill:#f05d1f;}.cls-2{fill:#0c953f;}</style></defs><path class="cls-1" d="M955.48,450.27c-.11.69.49.65.86.8l13.82,5.41c.65.26,1.32.68,1.12,1.46-.41,1.58.56,2.53,1.42,3.53,2.19,2.52,5,4.2,7.81,5.92a16,16,0,0,1,3.69,3.34c.62.71.58,1.17-.47,1.53-2.2.76-4.36,1.64-6.52,2.51-1.1.44-1.56.18-1.46-.95a3.81,3.81,0,0,0-1.86-3.75,33.53,33.53,0,0,0-16.6-6.25,23.19,23.19,0,0,0-17,5.58,5.41,5.41,0,0,0-2.11,4.94c.1,1.5-.14,1.57-1.5,1.06-4.38-1.63-8.79-3.19-13.15-4.87-1.41-.55-2.77-1.26-4.22-1.75a.82.82,0,0,1-.65-.77c0-.43.38-.54.71-.71l17.52-8.68,12.81-6.34c.85-.42,1.69-.84,2.52-1.29.27-.14.58-.34.25-.72Z" transform="translate(-881.84 -450.27)"/><path class="cls-1" d="M976.44,485.65c.38,9.09-3.78,14.46-10.73,18-9.48,4.78-20.87-.33-24.74-9.41a16,16,0,0,1-1.11-10.28c.52-2.13.7-4.33,1.87-6.29,2-3.42,5.22-5.18,8.91-6.06a31.17,31.17,0,0,1,13.39-.62c4.07.81,7.59,2.47,9.87,6A14.87,14.87,0,0,1,976.44,485.65Z" transform="translate(-881.84 -450.27)"/><path class="cls-2" d="M935.35,555.34a38.73,38.73,0,0,0,4.84,0c2.47-.33,3.5.71,4.36,3,2.44,6.53,5.23,12.92,7.88,19.37q3,7.4,6,14.79c.18.41.32.89.88.89.37,0,.52-.33.61-.64,1-3.14,2.59-6,3.78-9q2.78-7.11,5.63-14.17c1.5-3.66,3.07-7.29,4.61-10.94l.12-.25c1.37-3.13,1.37-3.14,4.74-2.92a20.55,20.55,0,0,0,2.83-.13c.91,0,1.29.3.92,1.22L978.81,566c-1.5,3.76-2.95,7.54-4.53,11.26-1.9,4.46-3.69,9-5.59,13.43-1.49,3.49-3,7-4.21,10.58-1,3.09-2.7,5.88-3.58,9a1.54,1.54,0,0,1-1.6,1c-.72,0-1-.44-1.23-1-2.6-6.44-5.18-12.88-7.84-19.3-2.14-5.19-4.41-10.33-6.56-15.52-2.22-5.36-4.35-10.75-6.54-16.12C936.61,558.08,936,556.83,935.35,555.34Z" transform="translate(-881.84 -450.27)"/><path class="cls-1" d="M894.13,456.54c1.46,0,2.93,0,4.41,0a1.62,1.62,0,0,1,1.37,1.15q3.66,8.4,7.35,16.8c1.42,3.2,2.93,6.37,4.35,9.58,1.9,4.27,3.74,8.56,5.63,12.83.82,1.85,1.7,3.67,2.58,5.48.19.39.36.74.09,1.13s-.58.29-1,.25c-.94-.08-1.89-.11-2.83-.1-2.61,0-2.62,0-3.58-2.29-3.16-7.59-6.27-15.2-9.47-22.77-2.86-6.79-5.81-13.54-8.73-20.31A2.26,2.26,0,0,1,894.13,456.54Z" transform="translate(-881.84 -450.27)"/><path class="cls-1" d="M1002.68,488a1.38,1.38,0,0,1,.1-1.42q3.39-7.5,6.57-15.08c1.91-4.58,4.08-9,5.83-13.7.35-.95,1.14-1,1.88-1a21.23,21.23,0,0,0,3.09-.07c1-.12,1.33.44.94,1.35-1.49,3.46-3.05,6.9-4.5,10.38-2.15,5.18-4.24,10.39-6.36,15.59q-.62,1.5-1.29,3a1.42,1.42,0,0,1-1.24.92C1006,488,1004.3,488,1002.68,488Z" transform="translate(-881.84 -450.27)"/><path class="cls-2" d="M952.21,517.14c0-2.29,0-4.59,0-6.89,0-.81.27-1.08,1.08-1.15a3.45,3.45,0,0,1,3.31,1.34c.87,1.15,1.82,2.23,2.76,3.32s1.37,1.24,2.44,0,2.23-2.58,3.34-3.88c1-1.11,2.21-.79,3.4-.67.51.05.57.5.57.93q0,7.09,0,14.19a.8.8,0,0,1-.91.92h-.41c-2.49,0-2.49,0-2.5-2.42,0-1.93,0-3.87,0-5.81,0-.44.1-1-.44-1.16s-.83.41-1,.82c-.58,1.27-1.77,2-2.51,3.17-.47.73-1.12.31-1.56-.22-.8-1-1.59-2-2.37-2.94-.29-.35-.57-.78-1.1-.54s-.34.69-.29,1.09a65.82,65.82,0,0,1,.13,6.88c0,.81-.29,1.1-1.11,1.13-2.74.1-2.73.13-2.7-2.61,0-1.85,0-3.7,0-5.55Z" transform="translate(-881.84 -450.27)"/><path class="cls-2" d="M999.2,515.55c-.38.73-.07,1.44-.08,2.14,0,2.16,0,4.32,0,6.48,0,.88-.3,1.18-1.19,1.16-2.7-.06-2.7,0-2.71-2.67,0-4.06,0-8.11,0-12.17,0-.85.29-1.19,1.13-1.33a3.84,3.84,0,0,1,4,1.54c1.78,2.31,3.86,4.39,5.59,6.75.26.35.56.81,1.08.62s.41-.77.34-1.17c-.42-2.24.24-4.5-.14-6.74-.11-.64.32-.89.89-.92s1.26,0,1.89-.08c.84-.09,1.14.28,1.14,1.08q0,7,0,14c0,.72-.21,1-1,1.05a3.81,3.81,0,0,1-3.45-1.59c-2-2.68-4.34-5.17-6.53-7.73A1.08,1.08,0,0,0,999.2,515.55Z" transform="translate(-881.84 -450.27)"/><path class="cls-1" d="M1004.17,499c-.38.38-.15.91-.85,1.29-1.11-1.75-3-2.11-5-2,.34,1.2-.55,2.59.51,3.9-1.14.3-1.54-.28-1.5-1,.08-1.33-1.13-2-1.4-3.13a.49.49,0,0,0-.77-.28.83.83,0,0,0-.21,1.11c.73,1.08.73,2.42,1.38,3.52a5.9,5.9,0,0,1,.93,2.66c0,.39.07.88-.51.93s-.59-.33-.69-.69a12.67,12.67,0,0,0-1.36-3.22,1.26,1.26,0,0,0-1.29-.79c-.66.09-1-.19-1.13-.84a5,5,0,0,0-1.6-2.43,68.34,68.34,0,0,0-5.35-5.15c-3.17-2.49-2.75-7.57-.67-10.1.85-1,1.63-2.12,2.45-3.18a1.67,1.67,0,0,1,.55-.57c.36-.18.72-.74,1.18-.29s0,.91-.27,1.28a12.3,12.3,0,0,1-1,.95,2.79,2.79,0,0,0-.77,2.95,10.72,10.72,0,0,0,5.46,7.18,95.12,95.12,0,0,0,10.75,5,18.12,18.12,0,0,1,5.87,4.24c.26.26.69.62.27,1s-.75,0-1.06-.26c-.73-.51-1.44-1.07-2.16-1.6A2.32,2.32,0,0,0,1004.17,499Z" transform="translate(-881.84 -450.27)"/><path class="cls-2" d="M947.16,517.31c0,2.26,0,4.51,0,6.77,0,.93-.24,1.3-1.22,1.25-3.19-.16-2.74.09-2.64-2.58,0-1,0-2.07,0-3.11s-.35-1.37-1.41-1.29a43.73,43.73,0,0,1-4.72.07c-1.26,0-1.85.38-1.76,1.71s0,2.61.1,3.91c.06,1-.31,1.35-1.24,1.28-.54,0-1.09,0-1.63-.05-.88-.07-1.17-.48-1.1-1.44a116.79,116.79,0,0,0,.05-13.23c0-1,.28-1.31,1.11-1.39.41,0,.82,0,1.22,0,1.24-.13,1.75.35,1.55,1.63-.17,1.11.08,2.24-.16,3.37-.18.81.41,1.13,1.11,1.21a45.29,45.29,0,0,0,5.94,0c.8,0,1.06-.56,1-1.29,0-1.26,0-2.52-.12-3.78-.08-.86.27-1.13,1.06-1.14,3.21,0,2.81-.5,2.81,2.56,0,1,0,1.89,0,2.84v2.7Z" transform="translate(-881.84 -450.27)"/><path class="cls-2" d="M1016.18,517.13c0-2.26,0-4.51,0-6.76,0-.84.18-1.24,1.12-1.21,2,.07,4.06,0,6.08.07,5.48.25,8.64,3.67,8.46,9.07-.12,3.71-3.67,6.79-7.87,7-2.25.09-4.5,0-6.76.06-.85,0-1.07-.4-1.06-1.17,0-2.34,0-4.68,0-7Zm6.24,5.1a4.45,4.45,0,0,0,4.74-2.4,5.1,5.1,0,0,0-.26-5.52c-1.17-1.84-4.54-2.88-6.43-2-.61.29-.59.8-.54,1.38a42.26,42.26,0,0,1,0,6.75c-.11,1.55,0,1.74,1.49,1.79Z" transform="translate(-881.84 -450.27)"/><path class="cls-2" d="M991.14,517.41c.28,4.35-4.16,8.23-8.73,8.25-4.92,0-9.41-3.58-9.2-8.7.17-4.26,4.27-8.1,9-8S991.43,512.65,991.14,517.41Zm-4-.12c-.07-3.3-2-5.19-5.07-5.12a4.9,4.9,0,0,0-4.87,5.31c0,3,2.21,4.87,5.45,4.79A4.54,4.54,0,0,0,987.12,517.29Z" transform="translate(-881.84 -450.27)"/><path class="cls-2" d="M900.05,525a8.4,8.4,0,0,1-3.63.21,1.46,1.46,0,0,1-1.24-1.26,16.45,16.45,0,0,0-1.72-3.65,3.35,3.35,0,0,0-1.34-1.3c-1.26-.7-2-.31-2,1.12,0,1.22,0,2.43.12,3.64.09,1-.27,1.48-1.33,1.53-2.71.12-2.68.14-2.68-2.51q0-6.15,0-12.29c0-.87.12-1.38,1.15-1.35,2.07.06,4.14,0,6.21,0a5.52,5.52,0,0,1,4.66,2.79c1,1.48.42,3.54-1.28,4.88-.8.63-.92,1.12-.15,1.83a5.8,5.8,0,0,1,1.28,2.2A24.37,24.37,0,0,0,900.05,525ZM890,513.87c0,1.79.27,2,2,2,1.31,0,2.66-1,2.62-1.83-.06-1.11-1.3-1.75-3.14-1.81C890.06,512.17,889.8,512.85,890,513.87Z" transform="translate(-881.84 -450.27)"/><path class="cls-2" d="M926.92,514c-1.06-.43-2-.8-2.94-1.2a6.66,6.66,0,0,0-5.62.18c-3,1.33-3.28,5.69-1.46,7.57a6.66,6.66,0,0,0,7.23,1.21,8.32,8.32,0,0,1,2.7-1.11v2.85c0,.43-.26.6-.62.77a12.08,12.08,0,0,1-7.87,1.06c-4.17-.88-7.34-4.83-6.63-9a8.24,8.24,0,0,1,5.6-6.69,11.66,11.66,0,0,1,7.43-.13c1.83.56,2,.79,2.06,2.69C926.81,512.71,926.87,513.23,926.92,514Z" transform="translate(-881.84 -450.27)"/><path class="cls-1" d="M996.27,466.5a2.86,2.86,0,0,1-1.84,1.53c-2.42,1-4.84,1.93-7.25,2.92a1.67,1.67,0,0,1-2.39-.6c-1.87-2.61-4.62-4.22-7.33-5.8-2.07-1.2-3.54-3-5.2-4.67-.51-.51-.42-1.33-.6-2.15,1.36-.46,2.44.41,3.46.78,4.22,1.52,8.35,3.3,12.54,4.94A52.14,52.14,0,0,0,996.27,466.5Z" transform="translate(-881.84 -450.27)"/><path class="cls-1" d="M894.12,549.33c0-1.31,0-2.62,0-3.92,0-.78.17-1.38,1.1-1.31s1.79.11,1.81,1.33a4.4,4.4,0,0,1,0,.81c-.27,1.73-.07,2,1.65,1.93.31,0,.63,0,.94,0,1.64.06,1.9-.21,1.75-1.85-.18-1.91.15-2.33,1.67-2.2.84.07,1.18.46,1.17,1.31,0,2.52,0,5.05,0,7.57,0,1.22-.65,1.29-1.55,1.27s-1.44-.23-1.4-1.32c.1-2.73.06-2.73-2.59-2.88-1.72-.09-1.92.17-1.71,1.89.1.85.61,1.95-.87,2.27s-2-.1-2-1.66c.06-1.08,0-2.16,0-3.24Z" transform="translate(-881.84 -450.27)"/><path class="cls-1" d="M998.33,549.25c0,1.3-.05,2.61,0,3.92,0,.94-.42,1.23-1.22,1.12s-1.76,0-1.69-1.23a1.24,1.24,0,0,0,0-.27c-.07-.84.78-1.95-.26-2.49s-2.55-.25-3.84-.16c-.42,0-.5.47-.46.86s.12,1.07.15,1.61c.06,1.63-.34,1.94-2,1.6-.69-.14-1-.46-.92-1.21a30.76,30.76,0,0,0,0-7.55c-.12-1.11.57-1.28,1.41-1.32s1.57.08,1.53,1.19a.57.57,0,0,0,0,.13c.19.84-.74,1.92.31,2.5s2.21.26,3.31.17,1-.83.87-1.71c-.35-1.79.08-2.32,1.57-2.32.86,0,1.21.38,1.2,1.24C998.31,546.63,998.33,547.94,998.33,549.25Z" transform="translate(-881.84 -450.27)"/><path class="cls-2" d="M903.17,517.16c0-2.3,0-4.6,0-6.89,0-.77.18-1.17,1.07-1.11,3,.19,2.82-.61,2.82,2.83,0,4,0,8,0,12,0,1-.31,1.3-1.25,1.27-2.92-.06-2.76.5-2.66-2.59.06-1.85,0-3.7,0-5.54Z" transform="translate(-881.84 -450.27)"/><path class="cls-1" d="M911.19,534.23c0-1.31,0-2.62,0-3.93,0-.74.27-1.11,1-1.11a39,39,0,0,1,4.19,0c2.52.26,3.43,2.46,1.92,4.44-.25.34-.62.77-.34,1.08.85.93.88,2.26,1.69,3.19.69.78.43,1.14-.51,1.34a2,2,0,0,1-2.59-1.35c-.29-.75-.53-1.53-.89-2.25a1,1,0,0,0-1.14-.53c-.55.17-.55.64-.49,1.12s.09.89.17,1.34c.21,1.13-.2,1.73-1.4,1.72s-1.57-.36-1.51-1.73c0-1.13,0-2.26,0-3.38Zm5.16-2.2a1.08,1.08,0,0,0-1.26-1.08,1.06,1.06,0,0,0-1.11,1.24,1.11,1.11,0,0,0,1.26,1.12C916,533.29,916.3,532.74,916.35,532Z" transform="translate(-881.84 -450.27)"/><path class="cls-1" d="M910.93,544.24c2.42,0,2.31,0,3.17,2.23s1.48,4.62,2.76,6.7c.32.52.16.94-.39,1-1.05.14-2.22.44-2.78-.93a1.43,1.43,0,0,0-1.61-.93,7.21,7.21,0,0,1-1.47,0,1.18,1.18,0,0,0-1.46.86,2.1,2.1,0,0,1-2.61,1.08c-.65-.26-.55-.76-.38-1.24,1-2.52,1.93-5,2.85-7.55C909.38,544.44,910,543.94,910.93,544.24Zm.59,3a3.77,3.77,0,0,0-1.23,2.18.67.67,0,0,0,.39.89,1.85,1.85,0,0,0,1.44,0,.62.62,0,0,0,.27-.82A4.67,4.67,0,0,0,911.52,547.26Z" transform="translate(-881.84 -450.27)"/><path class="cls-1" d="M953.18,534.18a13.22,13.22,0,0,0,.09-3.92c-.08-.74.24-1.11,1-1.1,1.4,0,2.8,0,4.19.07a3.31,3.31,0,0,1,2.65,2.06,1.5,1.5,0,0,1-.45,2c-.85.74-1.06,1.49-.16,2.4.74.76.75,1.91,1.31,2.79a.56.56,0,0,1-.45.82c-.84.16-1.75.39-2.32-.52a10.5,10.5,0,0,1-.71-1.6,11.71,11.71,0,0,0-.62-1.35,1.06,1.06,0,0,0-1.22-.64c-.65.18-.54.73-.49,1.23s.11.81.13,1.21c.1,1.64-.51,2.11-2.09,1.69a1,1,0,0,1-.85-1.17C953.21,536.79,953.18,535.49,953.18,534.18Zm4.27-.89a1.1,1.1,0,0,0,1-1.24c0-.9-.64-1.09-1.39-1.09s-1.22.33-1.19,1.13S956.33,533.33,957.45,533.29Z" transform="translate(-881.84 -450.27)"/><path class="cls-1" d="M1014.44,549.2c0-2.41,3.08-5.33,5.61-5.34,2.71,0,5.69,2.8,5.62,5.36a5.83,5.83,0,0,1-5.72,5.37C1017.31,554.52,1014.43,551.71,1014.44,549.2Zm5.6-3.2a3.26,3.26,0,0,0-2.88,3.27,3.14,3.14,0,0,0,3,3.18A3.25,3.25,0,0,0,1020,546Z" transform="translate(-881.84 -450.27)"/><path class="cls-1" d="M1012.13,549.36c.17,2-2.29,5.25-5.54,5.24-2.68,0-5.55-2.61-5.52-5.39s3-5.28,5.45-5.35A5.82,5.82,0,0,1,1012.13,549.36Zm-8.38-.05c0,2,1.06,3.13,2.89,3.11s2.82-1.22,2.79-3.23-1.09-3.2-3-3.17S1003.73,547.24,1003.75,549.31Z" transform="translate(-881.84 -450.27)"/><path class="cls-1" d="M940.19,538.46c1.49-1.11,1.19-2.92,2-4.28a11.46,11.46,0,0,0,.88-2.69c.64-2.27,1.83-2.94,4.11-2.3.61.17.82.62,1,1.15.92,2.38,1.88,4.76,2.8,7.14.23.59.81,1.24-.06,1.78-.61.38-2.42-.08-2.64-.73s-.37-1.51-1.36-1.27c-1.26.29-3-.75-3.62,1.4C943,539.72,941.34,539.63,940.19,538.46Zm5.54-6.2a3.57,3.57,0,0,0-1,2.42c-.07.76.8.66,1.36.68s1.09-.15,1-.8A3.51,3.51,0,0,0,945.73,532.26Z" transform="translate(-881.84 -450.27)"/><path class="cls-1" d="M953.51,544.23c1.59.11,3.1-.27,4.22,1.21a2.19,2.19,0,0,1,.11,2.94c-.67.84-.86,1.41-.11,2.32a9.91,9.91,0,0,1,1.26,2.52c.25.6.11,1.07-.69,1.08-1.14,0-2.15-.09-2.49-1.5a11.07,11.07,0,0,0-.89-2c-.23-.46-.51-.92-1.12-.77s-.64.77-.59,1.32.13,1.17.17,1.75c.08.91-.43,1.24-1.24,1.15s-1.74,0-1.68-1.36q.15-3.64,0-7.29c0-1.13.41-1.46,1.41-1.41C952.49,544.25,953.08,544.23,953.51,544.23Zm.86,4.07c.64-.07,1.34-.31,1.35-1.23s-.82-1.08-1.53-1.14-1.15.44-1.12,1.19S953.44,548.31,954.37,548.3Z" transform="translate(-881.84 -450.27)"/><path class="cls-1" d="M968.53,537.28c-1.14-.06-2.14-.06-2.44,1.45-.14.73-2.27.87-2.77.27a.6.6,0,0,1-.06-.74c1.44-2.51,2.06-5.34,3.06-8a1.37,1.37,0,0,1,1.46-1.09c.63,0,1.26,0,1.89,0a1.16,1.16,0,0,1,1.14.8c.85,2.26,1.7,4.52,2.53,6.79a4.21,4.21,0,0,0,.59,1.18c.59.79.29,1.39-.69,1.41s-2,0-2.39-1.25S969.35,537.4,968.53,537.28Zm.07-1.87c1.32.05,1.6-.34,1-1.55-.31-.59-.07-1.72-1-1.66-.78,0-.62,1.08-.89,1.66C967.1,535,967.33,535.35,968.6,535.41Z" transform="translate(-881.84 -450.27)"/><path class="cls-1" d="M927.77,553.9c-2,.82-3.09.37-3.6-1.44a5.37,5.37,0,0,0-1-2,.83.83,0,0,0-1.07-.31.78.78,0,0,0-.37.93c.08.53.23,1.06.28,1.59.13,1.28-.24,1.62-1.61,1.67-1.21,0-1.38-.57-1.34-1.62.09-2.43.1-4.87.08-7.3,0-.89.18-1.33,1.23-1.21,1.25.13,2.53,0,3.78.12,2.51.22,3.47,2.25,2,4.26-.62.84-.27,1.54.07,2.26C926.68,551.83,927.21,552.82,927.77,553.9Zm-4.86-5.64a1.09,1.09,0,0,0,1.28-1.2,1,1,0,0,0-1.17-1.12c-.72,0-1.53.09-1.55,1.09S922.12,548.21,922.91,548.26Z" transform="translate(-881.84 -450.27)"/><path class="cls-1" d="M995.91,534.22a5.91,5.91,0,0,1-5.64,5.43,5.72,5.72,0,0,1-5.47-5.47,5.62,5.62,0,0,1,5.41-5.36A6,6,0,0,1,995.91,534.22Zm-2.61.09a3.13,3.13,0,0,0-3-3.34c-2-.09-2.91,1.59-3,3.27a3,3,0,1,0,6,.07Z" transform="translate(-881.84 -450.27)"/><path class="cls-1" d="M922.09,534.18c0-1.31,0-2.62,0-3.92,0-.82.3-1.15,1.11-1.14,1.67,0,3.34,0,5,0,.74,0,1.24.23,1.19,1.09s-.57,1-1.3,1-1.53-.13-2.29-.1c-.56,0-1.12.21-1.13.92a1.06,1.06,0,0,0,1.13,1.1c.71,0,1.44-.1,2.15,0s1.34.09,1.33,1-.65,1.09-1.39,1.08-1.17-.06-1.76,0-1.43,0-1.46,1,.56,1.26,1.41,1.24c.67,0,1.35-.05,2-.08s1.31.28,1.3,1.16-.63,1-1.31,1c-1.58,0-3.15,0-4.73,0-.94,0-1.4-.33-1.32-1.39.09-1.25,0-2.52,0-3.78Z" transform="translate(-881.84 -450.27)"/><path class="cls-1" d="M943.84,554.28c-1.13-.28-2.47.27-3.32-.42s0-2-.1-3.07c-.19-1.74-.13-3.51-.26-5.26-.07-.95.27-1.31,1.21-1.3a41.49,41.49,0,0,0,4.86-.07c.7-.08,1.41.06,1.48,1s-.69,1-1.38,1-1.53-.06-2.29-.11-1.09.14-1.14.83.25,1.2.94,1.26a11.87,11.87,0,0,0,1.88-.12c.81-.08,1.46,0,1.53,1s-.47,1.25-1.36,1.14c-.62-.07-1.25-.1-1.88-.13s-1.08.2-1.11.88.14,1.31,1,1.35,1.53-.07,2.3-.06,1.52.13,1.54,1.1-.81.91-1.46.94C945.44,554.31,944.63,554.28,943.84,554.28Z" transform="translate(-881.84 -450.27)"/><path class="cls-1" d="M1007.07,529.34c2.22-.74,3.1-.39,4.08,1.53a1.11,1.11,0,0,0,1,.76c.54,0,.75-.39.94-.83.74-1.71,2-2.16,4-1.41.2.46-.13.74-.38,1.05a31.83,31.83,0,0,0-2.75,4.64,4.59,4.59,0,0,0-.26,2.65c0,.59.17,1.2-.56,1.5a2.2,2.2,0,0,1-2-.14c-.63-.34-.43-.87-.34-1.42a5.51,5.51,0,0,0-1-3.92C1008.93,532.3,1007.87,530.9,1007.07,529.34Z" transform="translate(-881.84 -450.27)"/><path class="cls-1" d="M932.38,533.84c0-.94-.07-2.2-.18-3.45-.06-.81.25-1.22,1-1.23a41.52,41.52,0,0,1,4.18.1,3.23,3.23,0,0,1,2.78,3.29,3.27,3.27,0,0,1-3.14,2.76c-2.11.07-2.11.07-2,2.24.09,1.68-.56,2.19-2.16,1.7-.63-.19-.91-.55-.74-1.2A24.91,24.91,0,0,0,932.38,533.84Zm2.47-1.8c.07.79.17,1.47,1.11,1.48a1.46,1.46,0,0,0,1.58-1.34c0-.93-.89-1.13-1.66-1.19S934.86,531.44,934.85,532Z" transform="translate(-881.84 -450.27)"/><path class="cls-1" d="M970.24,544a18.54,18.54,0,0,1,2.11.55,1,1,0,0,1,.57,1.33c-.21.55-.67.5-1.14.4a16.76,16.76,0,0,0-1.71-.36.85.85,0,0,0-1,.54c-.16.48.19.75.55,1a13.07,13.07,0,0,1,3,1.8,2.64,2.64,0,0,1,.3,3.93,4.35,4.35,0,0,1-5.82.55,2,2,0,0,1-.63-1.17c-.09-.37-.35-.8.13-1.09a.89.89,0,0,1,1.12.18,2.42,2.42,0,0,0,2.21.73.89.89,0,0,0,.79-.65c.11-.45-.24-.63-.56-.8a7.07,7.07,0,0,0-1.56-.77c-1.7-.41-2.42-2.63-2.16-3.76C966.76,545.05,968.34,544,970.24,544Z" transform="translate(-881.84 -450.27)"/><path class="cls-1" d="M978.9,529.08c1.13,0,2.26,0,3.38,0,.78,0,1.66,0,1.68,1.1s-.91,1-1.66,1c-2.15-.13-2.13-.15-2.08,2,0,1.66,0,3.33.06,5,0,.77-.27,1.27-1.1,1.14s-1.89-.08-1.74-1.21c.22-1.77,0-3.52.13-5.27.09-1.57-.33-1.94-1.87-1.78a3.12,3.12,0,0,1-.8.06A1,1,0,0,1,974,530c0-.62.37-.88,1-.88h3.92Z" transform="translate(-881.84 -450.27)"/><path class="cls-1" d="M933.23,544.16h3.65c.67,0,1.31,0,1.37.9s-.54,1-1.23,1.07c-2.41.14-2.4.14-2.37,2.55,0,1.45,0,2.89.05,4.33.06,1.1-.58,1.31-1.44,1.29s-1.55-.22-1.46-1.41c.15-1.88.14-3.78.2-5.67,0-.85-.4-1.24-1.25-1.2-.54,0-1.08,0-1.62,0s-1-.32-1-1,.5-.79,1-.79h4.05Z" transform="translate(-881.84 -450.27)"/><path class="cls-1" d="M1004.58,534.62a8.19,8.19,0,0,1,1.85,2.89c.25.58,1.07,1.19.06,1.62a1.66,1.66,0,0,1-2.33-.7c-.29-.6-.47-1.26-.74-1.88a5.22,5.22,0,0,0-.59-1.06,1.09,1.09,0,0,0-1.3-.46c-.53.2-.46.72-.44,1.16,0,.63.1,1.26.13,1.89,0,.46,0,.94-.55,1.11A2,2,0,0,1,999,539c-.5-.28-.33-.7-.28-1.17a38.6,38.6,0,0,0,0-7.13c-.08-1.07.29-1.42,1.2-1.44,1.08,0,2.16,0,3.24,0a3.18,3.18,0,0,1,2.94,2c.54,1.16-.27,2-1.1,2.8A4.14,4.14,0,0,0,1004.58,534.62Zm-2.36-1.3c.83,0,1.58-.25,1.55-1.26s-.84-1-1.55-1.09-1.19.29-1.18,1.1S1001.33,533.37,1002.22,533.32Z" transform="translate(-881.84 -450.27)"/><path class="cls-1" d="M1031.08,548c0,.89-.08,1.93-.14,3s.33,1.38,1.23,1.39,1.8-.06,2.7-.09a.94.94,0,0,1,1.1.91c.09.76-.4,1-1,1q-3,.06-5.93,0c-.73,0-1-.48-.93-1.19a70.43,70.43,0,0,0,0-7.55c-.07-1.22.74-1.27,1.58-1.33s1.39.24,1.35,1.22S1031.08,547.05,1031.08,548Z" transform="translate(-881.84 -450.27)"/><path class="cls-1" d="M904.22,529.22a3.91,3.91,0,0,1,3.1.83,2.59,2.59,0,0,1,1,2.83,3.36,3.36,0,0,1-2.39,2.3,1.75,1.75,0,0,1-.4,0c-2.48.12-2.48.12-2.15,2.55.07.51.14,1-.38,1.32a1.62,1.62,0,0,1-1.67,0c-.55-.31-.33-.79-.32-1.29.09-2.29.13-4.58.07-6.87,0-1.51.06-1.7,1.59-1.67Zm-.86,3c.06.73.38,1.26,1.25,1.17s1.43-.48,1.38-1.33-.79-1-1.49-1S903.35,531.43,903.36,532.25Z" transform="translate(-881.84 -450.27)"/><path class="cls-1" d="M881.87,549.38a5.24,5.24,0,0,1,4.94-5.28,9.65,9.65,0,0,1,3.21.33,1.21,1.21,0,0,1,.93,1.67c-.26.82-.87.32-1.34.17-2.2-.69-3.57-.36-4.85,1.08a2.67,2.67,0,0,0-.42,3,3.14,3.14,0,0,0,2.45,2.09,4.84,4.84,0,0,0,2.9-.4c.44-.23,1-.52,1.23.19s.19,1.32-.44,1.54c-1.94.67-4,1.08-5.89,0C882.94,552.82,881.6,551.41,881.87,549.38Z" transform="translate(-881.84 -450.27)"/><path class="cls-1" d="M982,554.23a5,5,0,0,1-5.08-2.4c-1.89-2.87,0-6.24,2.51-7.27a7.61,7.61,0,0,1,4.79-.19,1.45,1.45,0,0,1,1.14,1,.93.93,0,0,1-.13,1,.76.76,0,0,1-1,0,3.64,3.64,0,0,0-2.08-.48c-1.36,0-2.59.26-3.23,1.71a3.25,3.25,0,0,0,.62,4c1.14,1.16,2.52,1,3.91.68.57-.13,1.06-.83,1.71-.23a.91.91,0,0,1,.16,1c-.27.84-1,1-1.71,1.06C983.08,554.2,982.54,554.2,982,554.23Z" transform="translate(-881.84 -450.27)"/><path class="cls-1" d="M985.31,475.88c.12-1,.57-1.76,1.63-1.87a1.62,1.62,0,0,1,1.54,1.82c-.08.88-.4,1.76-1.47,1.74A1.74,1.74,0,0,1,985.31,475.88Z" transform="translate(-881.84 -450.27)"/><path class="cls-1" d="M1002.29,503.62c-1.09-.37-3.1-2.88-3.12-3.81a.58.58,0,0,1,.35-.65,1,1,0,0,1,1.1.26A12.79,12.79,0,0,1,1002.29,503.62Z" transform="translate(-881.84 -450.27)"/><path class="cls-1" d="M1003.88,500.57c1-.2,1.33.21,1.5,1C1004.38,501.9,1004.06,501.46,1003.88,500.57Z" transform="translate(-881.84 -450.27)"/></svg>