<svg id="Layer_1" data-name="Layer 1" xmlns="http://www.w3.org/2000/svg" viewBox="0 0 64 64"><defs><style>.cls-1{fill:#00b3e3;}.cls-2{opacity:0.1;}.cls-2,.cls-7{isolation:isolate;}.cls-3{fill:#d1d3d3;}.cls-4{fill:#a4a9ad;}.cls-5{fill:#333e48;}.cls-6{fill:#fff;}.cls-7{opacity:0.2;}.cls-8{fill:#a93439;}.cls-9{fill:#ff5959;}.cls-10{fill:#ffb819;}.cls-11{fill:#0071ce;}.cls-12{fill:#00ad68;}.cls-13{fill:#218649;}</style></defs><path class="cls-1" d="M282.77,244.83a2.58,2.58,0,0,0-2-1.33H231.26a2.56,2.56,0,0,0-2,1.33l-3.87,7.48c-.38.73-.08,1.33.65,1.33h60c.73,0,1-.6.65-1.33Z" transform="translate(-224 -224)"/><path class="cls-2" d="M227,249.15h24.22v-2.36h-23Zm56.8-2.36H260.51v2.36H285Z" transform="translate(-224 -224)"/><polygon class="cls-3" points="38.84 29.26 31.86 16.37 24.89 29.26 1.48 29.26 1.48 60.45 62.24 60.45 62.24 29.26 38.84 29.26"/><path class="cls-2" d="M265,254.94a1.82,1.82,0,0,1-1.41-.9l-.43-.78h-.34l-6.5-12a1,1,0,0,0-.95,0l-6.5,12h-.35l-.42.78a1.84,1.84,0,0,1-1.41.9H225.48v4.14h22.37a1.75,1.75,0,0,0,1.39-.92l5.46-9.63c.64-1.26,1.69-1.26,2.33,0l5.46,9.63a1.73,1.73,0,0,0,1.38.92h22.37v-4.14Z" transform="translate(-224 -224)"/><rect class="cls-4" x="56.34" y="35.83" width="5.9" height="3.27"/><rect class="cls-4" x="38.64" y="42.6" width="5.9" height="3.27"/><rect class="cls-4" x="49.33" y="54.21" width="5.9" height="3.27"/><rect class="cls-4" x="18.7" y="55.08" width="5.9" height="3.27"/><rect class="cls-4" x="1.48" y="38.97" width="5.9" height="3.27"/><rect class="cls-4" x="15.74" y="32.2" width="5.9" height="3.27"/><rect class="cls-5" x="26.79" y="44.39" width="10.14" height="16.06"/><rect class="cls-2" x="26.79" y="44.39" width="10.14" height="2.03"/><rect class="cls-6" x="28.73" y="48.11" width="2.05" height="4.44"/><rect class="cls-6" x="32.95" y="48.11" width="2.05" height="4.44"/><rect class="cls-6" x="16.2" y="41.69" width="5.96" height="9.44"/><rect class="cls-7" x="16.2" y="41.69" width="5.96" height="2.08"/><rect class="cls-8" x="16.2" y="45.23" width="5.96" height="2.36"/><path class="cls-9" d="M246.15,276.31h-6a1.11,1.11,0,0,1-1-1.18v-9.44a1.11,1.11,0,0,1,1-1.18h6a1.11,1.11,0,0,1,1,1.18v9.44A1.11,1.11,0,0,1,246.15,276.31ZM241.22,274h3.91v-7.08h-3.91Z" transform="translate(-224 -224)"/><rect class="cls-6" x="4.63" y="41.69" width="5.96" height="9.44"/><rect class="cls-7" x="4.63" y="41.69" width="5.96" height="2.08"/><rect class="cls-8" x="4.63" y="45.23" width="5.96" height="2.36"/><path class="cls-9" d="M234.59,276.31h-6a1.11,1.11,0,0,1-1-1.18v-9.44a1.11,1.11,0,0,1,1-1.18h6a1.11,1.11,0,0,1,1,1.18v9.44A1.11,1.11,0,0,1,234.59,276.31ZM229.66,274h3.91v-7.08h-3.91Z" transform="translate(-224 -224)"/><rect class="cls-6" x="41.57" y="41.69" width="5.96" height="9.44"/><rect class="cls-7" x="41.57" y="41.69" width="5.96" height="2.08"/><rect class="cls-8" x="41.57" y="45.23" width="5.96" height="2.36"/><path class="cls-9" d="M271.53,276.31h-6a1.11,1.11,0,0,1-1-1.18v-9.44a1.11,1.11,0,0,1,1-1.18h6a1.11,1.11,0,0,1,1,1.18v9.44A1.11,1.11,0,0,1,271.53,276.31ZM266.59,274h3.91v-7.08h-3.91Z" transform="translate(-224 -224)"/><rect class="cls-6" x="53.13" y="41.69" width="5.96" height="9.44"/><rect class="cls-7" x="53.13" y="41.69" width="5.96" height="2.08"/><rect class="cls-8" x="53.13" y="45.23" width="5.96" height="2.36"/><path class="cls-9" d="M283.09,276.31h-6a1.11,1.11,0,0,1-1-1.18v-9.44a1.11,1.11,0,0,1,1-1.18h6a1.1,1.1,0,0,1,1,1.18v9.44A1.11,1.11,0,0,1,283.09,276.31ZM278.16,274h3.91v-7.08h-3.91Z" transform="translate(-224 -224)"/><rect class="cls-10" x="31.86" y="2.26" width="11.83" height="7.81"/><rect class="cls-2" x="31.86" y="2.26" width="3.1" height="7.81"/><path class="cls-5" d="M255.86,241.55a1.11,1.11,0,0,1-1-1.18V225.18a1,1,0,1,1,2,0v15.19A1.11,1.11,0,0,1,255.86,241.55Z" transform="translate(-224 -224)"/><path class="cls-11" d="M257.08,239.17c-.67-1.24-1.77-1.24-2.44,0l-6.52,12a1.81,1.81,0,0,1-1.41.9H224.92a1,1,0,0,0-.92,1.06v2a1,1,0,0,0,.92,1.06h22.93a1.77,1.77,0,0,0,1.39-.92l5.46-9.64c.64-1.25,1.69-1.25,2.33,0l5.46,9.64a1.76,1.76,0,0,0,1.38.92H286.8a1,1,0,0,0,.92-1.06v-2a1,1,0,0,0-.92-1.06H265a1.8,1.8,0,0,1-1.41-.9Z" transform="translate(-224 -224)"/><ellipse class="cls-6" cx="31.86" cy="35.83" rx="4.65" ry="5.36"/><path class="cls-5" d="M257.64,258.65h-.75v-.88a1,1,0,1,0-2,0v2.05a1.11,1.11,0,0,0,1,1.18h1.78a1.19,1.19,0,0,0,0-2.35Z" transform="translate(-224 -224)"/><path class="cls-12" d="M288,287.36a.6.6,0,0,1-.55.64h-62.9a.6.6,0,0,1-.55-.64v-2.27a.6.6,0,0,1,.55-.64h62.9a.6.6,0,0,1,.55.64v2.27Z" transform="translate(-224 -224)"/><rect class="cls-4" x="23.74" y="60.46" width="16.52" height="3.54"/><path class="cls-13" d="M284.78,284.45c0-3-2.09-5.37-4.67-5.37s-4.67,2.41-4.67,5.37Z" transform="translate(-224 -224)"/><path class="cls-13" d="M239.26,284.45c0-3-2.09-5.37-4.67-5.37s-4.67,2.41-4.67,5.37Z" transform="translate(-224 -224)"/></svg>